<?xml version='1.0' encoding='UTF-8'?>
<!DOCTYPE svg PUBLIC "-//W3C//DTD SVG 1.1//EN" "http://www.w3.org/Graphics/SVG/1.1/DTD/svg11.dtd">
<!-- Generated by graphviz version 2.44.1 (20200629.0846)
 --><!-- Title: site.yml  Pages: 1 --><svg xmlns="http://www.w3.org/2000/svg" xmlns:xlink="http://www.w3.org/1999/xlink" width="1594pt" height="1431pt" viewBox="0.00 0.00 1594.28 1430.99" id="svg">
<script type="text/javascript" href="https://ajax.googleapis.com/ajax/libs/jquery/3.2.1/jquery.min.js" id="jquery"/><script type="text/javascript" id="my_javascript"><![CDATA[const HOVER_CLASS = "my_hover";

var selectedElement = null;

function addClass(rootElement) {
    $(rootElement).find('link').each(function (index, element) {
        var target = $(element).attr('target');
        var currentElement = $('#' + target);
        currentElement.addClass(HOVER_CLASS);

        addClass(currentElement);
    })
}

function removeClass(rootElement, hover) {
    $(rootElement).find('link').each(function (index, element) {
        if ($(rootElement).attr('id') !== $(selectedElement).attr('id') || !hover) {
            var target = $(element).attr('target');
            var currentElement = $('#' + target);
            currentElement.removeClass(HOVER_CLASS);

            removeClass(currentElement);
        }

    })
}

function hoverIn(event) {
    addClass(event.currentTarget);
}

function hoverOut(event) {
    removeClass(event.currentTarget, true);
}

function clickOnElement(event) {
    var newElement = event.currentTarget;

    if ($(newElement).attr('id') === $(selectedElement).attr('id')) {
        removeClass(selectedElement, false);
    } else {
        removeClass(selectedElement);
        addClass(newElement)
    }

    selectedElement = newElement;
}


$("#svg").ready(function () {

    $("g[id^=play_]").hover(hoverIn, hoverOut);
    $("g[id^=role_]").hover(hoverIn, hoverOut);

    $("g[id^=play_]").click(clickOnElement);
    $("g[id^=role_]").click(clickOnElement);

});
]]></script><style type="text/css" id="my_css"><![CDATA[.node:hover, .edge:hover, path:hover, path + polygon:hover {
    cursor: pointer;
    stroke-width: 3;
    font-weight: bolder;
}

.my_hover {
    cursor: pointer;
    stroke-width: 3;
    font-weight: bolder;
}
]]></style><g id="graph0" class="graph" transform="scale(1 1) rotate(0) translate(4 1426.99)">
<title>site.yml </title>
<polygon fill="white" stroke="transparent" points="-4,4 -4,-1426.99 1590.28,-1426.99 1590.28,4 -4,4"/>
<!-- site.yml -->
<g id="root_node" class="node">
<title>site.yml</title>
<ellipse fill="none" stroke="black" stroke-dasharray="1,5" cx="39.65" cy="-729.99" rx="39.79" ry="18"/>
<text text-anchor="middle" x="39.65" y="-726.29" font-family="Times,serif" font-size="14.00">site.yml</text>
</g>
<!-- Play #1: all (1) -->
<g id="play_ec1c215c-d981-4c8e-8137-d4f9f922e7c7" class="node">
<title>Play #1: all (1)</title>
<g id="a_play_ec1c215c-d981-4c8e-8137-d4f9f922e7c7"><a xlink:title="161.156.173.219">
<polygon fill="#cf2df1" stroke="#cf2df1" points="220.29,-747.99 122.29,-747.99 122.29,-711.99 220.29,-711.99 220.29,-747.99"/>
<text text-anchor="middle" x="171.29" y="-726.29" font-family="Times,serif" font-size="14.00" fill="#ffffff">Play #1: all (1)</text>
</a>
</g>
<links><link target="edge_96b7cf19-8b68-40db-868b-824219ceb227"/></links></g>
<!-- site.yml&#45;&gt;Play #1: all (1) -->
<g id="edge_78dea12b-aa08-43d9-9fa4-b4bc4970f186" class="edge">
<title>site.yml-&gt;Play #1: all (1)</title>
<path fill="none" stroke="#cf2df1" stroke-width="2" d="M79.54,-729.99C89.82,-729.99 101.14,-729.99 112.2,-729.99"/>
<polygon fill="#cf2df1" stroke="#cf2df1" stroke-width="2" points="112.24,-733.49 122.24,-729.99 112.24,-726.49 112.24,-733.49"/>
<text text-anchor="middle" x="100.79" y="-733.79" font-family="Times,serif" font-size="14.00" fill="#cf2df1">1</text>
</g>
<!-- [role] instance_creation -->
<g id="role_55181d02-d8b1-4ffb-aa81-e2c35478057b" class="node">
<title>[role] instance_creation</title>
<ellipse fill="none" stroke="black" cx="357.53" cy="-729.99" rx="94.48" ry="18"/>
<text text-anchor="middle" x="357.53" y="-726.29" font-family="Times,serif" font-size="14.00">[role] instance_creation</text>
<links><link target="edge_03f65748-5015-4795-ad19-6492d7b10e34"/><link target="edge_a1242ac4-21c1-4672-a919-df1899485bf9"/><link target="edge_99836fc6-41c2-4c1f-93c0-9699e56d0843"/><link target="edge_6b91a796-9c27-411b-9d5e-4807bf498659"/><link target="edge_ab633029-d7a6-42ff-95b4-8294c7dd4d49"/><link target="edge_84f718f3-3376-4469-a2c0-0ca16c765953"/><link target="edge_fb42e192-e3f4-42d8-b614-8f40c77d54f7"/><link target="edge_448485a1-3dfb-4f51-ab1e-dfb142f3a6f5"/><link target="edge_f5d3ad44-fd3f-48b1-8e2c-5878bc16657d"/><link target="edge_414a960b-6b83-4d83-abbe-ade173beabe7"/><link target="edge_f499f544-ad4c-42b0-9527-780f8dc51c54"/><link target="edge_2ac81ed7-d374-4a30-90e0-a31bcdea230c"/><link target="edge_a2b48aac-5552-4eaa-b348-c620ab3a57b2"/><link target="edge_ff1f0e81-0fd1-4146-8531-50b416b5b2fd"/><link target="edge_3deafdc2-2405-46f1-8d50-78cf7ff5d352"/><link target="edge_da797f07-1d2b-4f83-a60b-4ebead85be2c"/><link target="edge_9f6b40f8-c7f4-4bc9-a7a6-c57f16553976"/><link target="edge_79fd9378-03d0-4fc9-8888-843d54183fb4"/><link target="edge_7ad9fc20-1623-421a-ad46-e4ce8b9cd36a"/><link target="edge_9e32cbd5-a24b-45b5-b4af-a9e73e699c10"/><link target="edge_78fccd07-e72a-4121-b409-5aab26935681"/><link target="edge_4f7dde91-8e18-4a69-97c6-43e27972d1da"/><link target="edge_e84b83f3-7a1d-4fba-b72c-02d7aa6b0729"/><link target="edge_7139b9c0-3d61-4e1f-8218-152df17d3fa3"/><link target="edge_db4e24cf-dee0-465e-bb5b-9fbb577c618c"/></links></g>
<!-- task_23ea617e&#45;dbb2&#45;4ef6&#45;a447&#45;886bb0e20a08 -->
<g id="task_23ea617e-dbb2-4ef6-a447-886bb0e20a08" class="node">
<title>task_23ea617e-dbb2-4ef6-a447-886bb0e20a08</title>
<polygon fill="none" stroke="black" points="1430.18,-1370.53 1430.18,-1385.45 1326.7,-1395.99 1180.36,-1395.99 1076.87,-1385.45 1076.87,-1370.53 1180.36,-1359.99 1326.7,-1359.99 1430.18,-1370.53"/>
<text text-anchor="middle" x="1253.53" y="-1374.29" font-family="Times,serif" font-size="14.00">[task] instance_creation : add splunk group</text>
</g>
<!-- [role] instance_creation&#45;&gt;task_23ea617e&#45;dbb2&#45;4ef6&#45;a447&#45;886bb0e20a08 -->
<g id="edge_03f65748-5015-4795-ad19-6492d7b10e34" class="edge">
<title>[role] instance_creation-&gt;task_23ea617e-dbb2-4ef6-a447-886bb0e20a08</title>
<path fill="none" stroke="#cf2df1" stroke-width="2" d="M358.88,-748.27C361.04,-842.01 375.99,-1267.56 469.78,-1348.99 563.89,-1430.71 924.58,-1410.26 1121.81,-1392.07"/>
<polygon fill="#cf2df1" stroke="#cf2df1" stroke-width="2" points="1122.32,-1395.54 1131.95,-1391.12 1121.67,-1388.57 1122.32,-1395.54"/>
<text text-anchor="middle" x="686.28" y="-1411.79" font-family="Times,serif" font-size="14.00" fill="#cf2df1">1</text>
<links><link target="task_23ea617e-dbb2-4ef6-a447-886bb0e20a08"/></links></g>
<!-- task_5c40772f&#45;ef07&#45;49a0&#45;aae7&#45;dc174a29e712 -->
<g id="task_5c40772f-ef07-49a0-aae7-dc174a29e712" class="node">
<title>task_5c40772f-ef07-49a0-aae7-dc174a29e712</title>
<polygon fill="none" stroke="black" points="1424.02,-1316.53 1424.02,-1331.45 1324.15,-1341.99 1182.91,-1341.99 1083.04,-1331.45 1083.04,-1316.53 1182.91,-1305.99 1324.15,-1305.99 1424.02,-1316.53"/>
<text text-anchor="middle" x="1253.53" y="-1320.29" font-family="Times,serif" font-size="14.00">[task] instance_creation : add splunk user</text>
</g>
<!-- [role] instance_creation&#45;&gt;task_5c40772f&#45;ef07&#45;49a0&#45;aae7&#45;dc174a29e712 -->
<g id="edge_a1242ac4-21c1-4672-a919-df1899485bf9" class="edge">
<title>[role] instance_creation-&gt;task_5c40772f-ef07-49a0-aae7-dc174a29e712</title>
<path fill="none" stroke="#cf2df1" stroke-width="2" d="M359.22,-748.1C362.94,-836.41 383.95,-1220.64 469.78,-1293.99 514.46,-1332.18 855.77,-1332.47 1072.69,-1328.63"/>
<polygon fill="#cf2df1" stroke="#cf2df1" stroke-width="2" points="1072.99,-1332.13 1082.92,-1328.45 1072.86,-1325.13 1072.99,-1332.13"/>
<text text-anchor="middle" x="686.28" y="-1333.79" font-family="Times,serif" font-size="14.00" fill="#cf2df1">2</text>
<links><link target="task_5c40772f-ef07-49a0-aae7-dc174a29e712"/></links></g>
<!-- task_83f7885c&#45;4a3b&#45;4422&#45;8c1a&#45;5f2517981ae2 -->
<g id="task_83f7885c-4a3b-4422-8c1a-5f2517981ae2" class="node">
<title>task_83f7885c-4a3b-4422-8c1a-5f2517981ae2</title>
<polygon fill="none" stroke="black" points="1482.71,-1262.53 1482.71,-1277.45 1348.46,-1287.99 1158.6,-1287.99 1024.35,-1277.45 1024.35,-1262.53 1158.6,-1251.99 1348.46,-1251.99 1482.71,-1262.53"/>
<text text-anchor="middle" x="1253.53" y="-1266.29" font-family="Times,serif" font-size="14.00">[task] instance_creation : make /opt writetable by splunk</text>
</g>
<!-- [role] instance_creation&#45;&gt;task_83f7885c&#45;4a3b&#45;4422&#45;8c1a&#45;5f2517981ae2 -->
<g id="edge_99836fc6-41c2-4c1f-93c0-9699e56d0843" class="edge">
<title>[role] instance_creation-&gt;task_83f7885c-4a3b-4422-8c1a-5f2517981ae2</title>
<path fill="none" stroke="#cf2df1" stroke-width="2" d="M359.64,-748.25C365.08,-831.49 391.96,-1173.77 469.78,-1238.99 510.93,-1273.48 799.21,-1277.22 1014.04,-1275.01"/>
<polygon fill="#cf2df1" stroke="#cf2df1" stroke-width="2" points="1014.25,-1278.51 1024.22,-1274.9 1014.18,-1271.51 1014.25,-1278.51"/>
<text text-anchor="middle" x="686.28" y="-1278.79" font-family="Times,serif" font-size="14.00" fill="#cf2df1">3</text>
<links><link target="task_83f7885c-4a3b-4422-8c1a-5f2517981ae2"/></links></g>
<!-- task_cf1cc82c&#45;26f3&#45;4887&#45;be64&#45;b4b99596e0b5 -->
<g id="task_cf1cc82c-26f3-4887-be64-b4b99596e0b5" class="node">
<title>task_cf1cc82c-26f3-4887-be64-b4b99596e0b5</title>
<polygon fill="none" stroke="black" points="1381.6,-1208.53 1381.6,-1223.45 1306.58,-1233.99 1200.48,-1233.99 1125.46,-1223.45 1125.46,-1208.53 1200.48,-1197.99 1306.58,-1197.99 1381.6,-1208.53"/>
<text text-anchor="middle" x="1253.53" y="-1212.29" font-family="Times,serif" font-size="14.00">[task] instance_creation : shell</text>
</g>
<!-- [role] instance_creation&#45;&gt;task_cf1cc82c&#45;26f3&#45;4887&#45;be64&#45;b4b99596e0b5 -->
<g id="edge_6b91a796-9c27-411b-9d5e-4807bf498659" class="edge">
<title>[role] instance_creation-&gt;task_cf1cc82c-26f3-4887-be64-b4b99596e0b5</title>
<path fill="none" stroke="#cf2df1" stroke-width="2" d="M360.14,-748.08C367.38,-825.4 399.82,-1126.76 469.78,-1183.99 518.36,-1223.73 903.9,-1222.8 1115.17,-1219.19"/>
<polygon fill="#cf2df1" stroke="#cf2df1" stroke-width="2" points="1115.47,-1222.68 1125.41,-1219.01 1115.35,-1215.68 1115.47,-1222.68"/>
<text text-anchor="middle" x="686.28" y="-1223.79" font-family="Times,serif" font-size="14.00" fill="#cf2df1">4  [when: ansible_os_family == "Debian"]</text>
<links><link target="task_cf1cc82c-26f3-4887-be64-b4b99596e0b5"/></links></g>
<!-- task_7d6021aa&#45;0bb1&#45;41e7&#45;8306&#45;c7a9d15467bb -->
<g id="task_7d6021aa-0bb1-41e7-8306-c7a9d15467bb" class="node">
<title>task_7d6021aa-0bb1-41e7-8306-c7a9d15467bb</title>
<polygon fill="none" stroke="black" points="1381.6,-1154.53 1381.6,-1169.45 1306.58,-1179.99 1200.48,-1179.99 1125.46,-1169.45 1125.46,-1154.53 1200.48,-1143.99 1306.58,-1143.99 1381.6,-1154.53"/>
<text text-anchor="middle" x="1253.53" y="-1158.29" font-family="Times,serif" font-size="14.00">[task] instance_creation : shell</text>
</g>
<!-- [role] instance_creation&#45;&gt;task_7d6021aa&#45;0bb1&#45;41e7&#45;8306&#45;c7a9d15467bb -->
<g id="edge_ab633029-d7a6-42ff-95b4-8294c7dd4d49" class="edge">
<title>[role] instance_creation-&gt;task_7d6021aa-0bb1-41e7-8306-c7a9d15467bb</title>
<path fill="none" stroke="#cf2df1" stroke-width="2" d="M360.78,-748.04C370.02,-819.31 407.66,-1079.72 469.78,-1128.99 518.93,-1167.97 903.72,-1167.91 1114.89,-1164.83"/>
<polygon fill="#cf2df1" stroke="#cf2df1" stroke-width="2" points="1115.17,-1168.33 1125.12,-1164.68 1115.07,-1161.33 1115.17,-1168.33"/>
<text text-anchor="middle" x="686.28" y="-1168.79" font-family="Times,serif" font-size="14.00" fill="#cf2df1">5  [when: ansible_os_family == "RedHat"]</text>
<links><link target="task_7d6021aa-0bb1-41e7-8306-c7a9d15467bb"/></links></g>
<!-- task_f8f1ca67&#45;3667&#45;4a36&#45;8c32&#45;b052a13f2e59 -->
<g id="task_f8f1ca67-3667-4a36-8c32-b052a13f2e59" class="node">
<title>task_f8f1ca67-3667-4a36-8c32-b052a13f2e59</title>
<polygon fill="none" stroke="black" points="1390.89,-1100.53 1390.89,-1115.45 1310.43,-1125.99 1196.63,-1125.99 1116.17,-1115.45 1116.17,-1100.53 1196.63,-1089.99 1310.43,-1089.99 1390.89,-1100.53"/>
<text text-anchor="middle" x="1253.53" y="-1104.29" font-family="Times,serif" font-size="14.00">[task] instance_creation : get_url</text>
</g>
<!-- [role] instance_creation&#45;&gt;task_f8f1ca67&#45;3667&#45;4a36&#45;8c32&#45;b052a13f2e59 -->
<g id="edge_84f718f3-3376-4469-a2c0-0ca16c765953" class="edge">
<title>[role] instance_creation-&gt;task_f8f1ca67-3667-4a36-8c32-b052a13f2e59</title>
<path fill="none" stroke="#cf2df1" stroke-width="2" d="M357.9,-748.16C356.97,-806.91 362.9,-992.62 469.78,-1073.99 518.98,-1111.45 893.31,-1112.85 1105.99,-1110.51"/>
<polygon fill="#cf2df1" stroke="#cf2df1" stroke-width="2" points="1106.04,-1114.01 1115.99,-1110.4 1105.96,-1107.01 1106.04,-1114.01"/>
<text text-anchor="middle" x="686.28" y="-1113.79" font-family="Times,serif" font-size="14.00" fill="#cf2df1">6  [when: ansible_os_family == "Debian"]</text>
<links><link target="task_f8f1ca67-3667-4a36-8c32-b052a13f2e59"/></links></g>
<!-- task_134fbb18&#45;b3ce&#45;4717&#45;ba40&#45;83fc26df53c8 -->
<g id="task_134fbb18-b3ce-4717-ba40-83fc26df53c8" class="node">
<title>task_134fbb18-b3ce-4717-ba40-83fc26df53c8</title>
<polygon fill="none" stroke="black" points="1390.89,-1046.53 1390.89,-1061.45 1310.43,-1071.99 1196.63,-1071.99 1116.17,-1061.45 1116.17,-1046.53 1196.63,-1035.99 1310.43,-1035.99 1390.89,-1046.53"/>
<text text-anchor="middle" x="1253.53" y="-1050.29" font-family="Times,serif" font-size="14.00">[task] instance_creation : get_url</text>
</g>
<!-- [role] instance_creation&#45;&gt;task_134fbb18&#45;b3ce&#45;4717&#45;ba40&#45;83fc26df53c8 -->
<g id="edge_fb42e192-e3f4-42d8-b614-8f40c77d54f7" class="edge">
<title>[role] instance_creation-&gt;task_134fbb18-b3ce-4717-ba40-83fc26df53c8</title>
<path fill="none" stroke="#cf2df1" stroke-width="2" d="M359.14,-748.24C361.99,-800.81 378.15,-953.02 469.78,-1018.99 519.94,-1055.11 893.51,-1057.58 1105.92,-1055.98"/>
<polygon fill="#cf2df1" stroke="#cf2df1" stroke-width="2" points="1106.26,-1059.48 1116.23,-1055.9 1106.2,-1052.48 1106.26,-1059.48"/>
<text text-anchor="middle" x="686.28" y="-1058.79" font-family="Times,serif" font-size="14.00" fill="#cf2df1">7  [when: ansible_os_family == "RedHat"]</text>
<links><link target="task_134fbb18-b3ce-4717-ba40-83fc26df53c8"/></links></g>
<!-- task_4027caee&#45;a48e&#45;496e&#45;bb13&#45;a676fc75e9a0 -->
<g id="task_4027caee-a48e-496e-bb13-a676fc75e9a0" class="node">
<title>task_4027caee-a48e-496e-bb13-a676fc75e9a0</title>
<polygon fill="none" stroke="black" points="1470.38,-992.53 1470.38,-1007.45 1343.35,-1017.99 1163.71,-1017.99 1036.68,-1007.45 1036.68,-992.53 1163.71,-981.99 1343.35,-981.99 1470.38,-992.53"/>
<text text-anchor="middle" x="1253.53" y="-996.29" font-family="Times,serif" font-size="14.00">[task] instance_creation : install splunk from package</text>
</g>
<!-- [role] instance_creation&#45;&gt;task_4027caee&#45;a48e&#45;496e&#45;bb13&#45;a676fc75e9a0 -->
<g id="edge_448485a1-3dfb-4f51-ab1e-dfb142f3a6f5" class="edge">
<title>[role] instance_creation-&gt;task_4027caee-a48e-496e-bb13-a676fc75e9a0</title>
<path fill="none" stroke="#cf2df1" stroke-width="2" d="M360.85,-748.15C367.74,-793.89 392.72,-913.76 469.78,-964.99 515.25,-995.22 811.65,-1001.3 1026.29,-1001.63"/>
<polygon fill="#cf2df1" stroke="#cf2df1" stroke-width="2" points="1026.44,-1005.13 1036.45,-1001.64 1026.45,-998.13 1026.44,-1005.13"/>
<text text-anchor="middle" x="686.28" y="-1003.79" font-family="Times,serif" font-size="14.00" fill="#cf2df1">8  [when: (ansible_os_family == "RedHat") and (skip_upgrade is not defined)]</text>
<links><link target="task_4027caee-a48e-496e-bb13-a676fc75e9a0"/></links></g>
<!-- task_5664f5bc&#45;7e35&#45;4858&#45;8d82&#45;97dcabdef1e2 -->
<g id="task_5664f5bc-7e35-4858-8d82-97dcabdef1e2" class="node">
<title>task_5664f5bc-7e35-4858-8d82-97dcabdef1e2</title>
<polygon fill="none" stroke="black" points="1538.36,-938.53 1538.36,-953.45 1371.51,-963.99 1135.55,-963.99 968.7,-953.45 968.7,-938.53 1135.55,-927.99 1371.51,-927.99 1538.36,-938.53"/>
<text text-anchor="middle" x="1253.53" y="-942.29" font-family="Times,serif" font-size="14.00">[task] instance_creation : change "/opt/splunk" owner and owner group</text>
</g>
<!-- [role] instance_creation&#45;&gt;task_5664f5bc&#45;7e35&#45;4858&#45;8d82&#45;97dcabdef1e2 -->
<g id="edge_f5d3ad44-fd3f-48b1-8e2c-5878bc16657d" class="edge">
<title>[role] instance_creation-&gt;task_5664f5bc-7e35-4858-8d82-97dcabdef1e2</title>
<path fill="none" stroke="#cf2df1" stroke-width="2" d="M363.2,-747.96C374.24,-786.42 405.99,-876.28 469.78,-913.99 511.93,-938.91 754.34,-945.92 958.38,-947.28"/>
<polygon fill="#cf2df1" stroke="#cf2df1" stroke-width="2" points="958.66,-950.78 968.68,-947.35 958.7,-943.79 958.66,-950.78"/>
<text text-anchor="middle" x="686.28" y="-949.79" font-family="Times,serif" font-size="14.00" fill="#cf2df1">9</text>
<links><link target="task_5664f5bc-7e35-4858-8d82-97dcabdef1e2"/></links></g>
<!-- task_e5b865a4&#45;0bb1&#45;489f&#45;a18d&#45;27ddc1005fbd -->
<g id="task_e5b865a4-0bb1-489f-a18d-27ddc1005fbd" class="node">
<title>task_e5b865a4-0bb1-489f-a18d-27ddc1005fbd</title>
<polygon fill="none" stroke="black" points="1425.33,-884.53 1425.33,-899.45 1324.69,-909.99 1182.36,-909.99 1081.72,-899.45 1081.72,-884.53 1182.36,-873.99 1324.69,-873.99 1425.33,-884.53"/>
<text text-anchor="middle" x="1253.53" y="-888.29" font-family="Times,serif" font-size="14.00">[task] instance_creation : dpkg_selections</text>
</g>
<!-- [role] instance_creation&#45;&gt;task_e5b865a4&#45;0bb1&#45;489f&#45;a18d&#45;27ddc1005fbd -->
<g id="edge_414a960b-6b83-4d83-abbe-ade173beabe7" class="edge">
<title>[role] instance_creation-&gt;task_e5b865a4-0bb1-489f-a18d-27ddc1005fbd</title>
<path fill="none" stroke="#cf2df1" stroke-width="2" d="M366.62,-748.35C381.67,-779.94 417.3,-843.75 469.78,-869.99 522.03,-896.12 857.03,-897.08 1071.51,-894.89"/>
<polygon fill="#cf2df1" stroke="#cf2df1" stroke-width="2" points="1071.67,-898.39 1081.63,-894.78 1071.59,-891.39 1071.67,-898.39"/>
<text text-anchor="middle" x="686.28" y="-898.79" font-family="Times,serif" font-size="14.00" fill="#cf2df1">10  [when: ansible_os_family == "Debian"]</text>
<links><link target="task_e5b865a4-0bb1-489f-a18d-27ddc1005fbd"/></links></g>
<!-- task_b8ea9565&#45;d299&#45;4a65&#45;a5a8&#45;4f3c78ed93a1 -->
<g id="task_b8ea9565-d299-4a65-a5a8-4f3c78ed93a1" class="node">
<title>task_b8ea9565-d299-4a65-a5a8-4f3c78ed93a1</title>
<polygon fill="none" stroke="black" points="1480.98,-830.53 1480.98,-845.45 1347.74,-855.99 1159.31,-855.99 1026.07,-845.45 1026.07,-830.53 1159.31,-819.99 1347.74,-819.99 1480.98,-830.53"/>
<text text-anchor="middle" x="1253.53" y="-834.29" font-family="Times,serif" font-size="14.00">[task] instance_creation : accept license and start splunk</text>
</g>
<!-- [role] instance_creation&#45;&gt;task_b8ea9565&#45;d299&#45;4a65&#45;a5a8&#45;4f3c78ed93a1 -->
<g id="edge_f499f544-ad4c-42b0-9527-780f8dc51c54" class="edge">
<title>[role] instance_creation-&gt;task_b8ea9565-d299-4a65-a5a8-4f3c78ed93a1</title>
<path fill="none" stroke="#cf2df1" stroke-width="2" d="M380.85,-747.68C402.28,-763.54 436.25,-785.82 469.78,-795.99 675.78,-858.49 926.07,-859.78 1087.26,-851.65"/>
<polygon fill="#cf2df1" stroke="#cf2df1" stroke-width="2" points="1087.46,-855.15 1097.27,-851.13 1087.1,-848.16 1087.46,-855.15"/>
<text text-anchor="middle" x="686.28" y="-857.79" font-family="Times,serif" font-size="14.00" fill="#cf2df1">11</text>
<links><link target="task_b8ea9565-d299-4a65-a5a8-4f3c78ed93a1"/></links></g>
<!-- task_65d19128&#45;e61e&#45;4526&#45;b3ae&#45;d693bd05521c -->
<g id="task_65d19128-e61e-4526-b3ae-d693bd05521c" class="node">
<title>task_65d19128-e61e-4526-b3ae-d693bd05521c</title>
<polygon fill="none" stroke="black" points="1427.96,-776.53 1427.96,-791.45 1325.78,-801.99 1181.28,-801.99 1079.1,-791.45 1079.1,-776.53 1181.28,-765.99 1325.78,-765.99 1427.96,-776.53"/>
<text text-anchor="middle" x="1253.53" y="-780.29" font-family="Times,serif" font-size="14.00">[task] instance_creation : enable boot-start</text>
</g>
<!-- [role] instance_creation&#45;&gt;task_65d19128&#45;e61e&#45;4526&#45;b3ae&#45;d693bd05521c -->
<g id="edge_2ac81ed7-d374-4a30-90e0-a31bcdea230c" class="edge">
<title>[role] instance_creation-&gt;task_65d19128-e61e-4526-b3ae-d693bd05521c</title>
<path fill="none" stroke="#cf2df1" stroke-width="2" d="M424.52,-742.65C439.36,-745.11 455.07,-747.41 469.78,-748.99 673.92,-770.9 909.44,-779.14 1068.38,-782.22"/>
<polygon fill="#cf2df1" stroke="#cf2df1" stroke-width="2" points="1068.67,-785.72 1078.73,-782.41 1068.8,-778.72 1068.67,-785.72"/>
<text text-anchor="middle" x="686.28" y="-780.79" font-family="Times,serif" font-size="14.00" fill="#cf2df1">12</text>
<links><link target="task_65d19128-e61e-4526-b3ae-d693bd05521c"/></links></g>
<!-- task_f1fed5a6&#45;05f9&#45;44c5&#45;82b9&#45;e5468f118ee8 -->
<g id="task_f1fed5a6-05f9-44c5-82b9-e5468f118ee8" class="node">
<title>task_f1fed5a6-05f9-44c5-82b9-e5468f118ee8</title>
<polygon fill="none" stroke="black" points="1495.53,-722.53 1495.53,-737.45 1353.77,-747.99 1153.29,-747.99 1011.53,-737.45 1011.53,-722.53 1153.29,-711.99 1353.77,-711.99 1495.53,-722.53"/>
<text text-anchor="middle" x="1253.53" y="-726.29" font-family="Times,serif" font-size="14.00">[task] instance_creation : make /etc/init.d/splunk executable</text>
</g>
<!-- [role] instance_creation&#45;&gt;task_f1fed5a6&#45;05f9&#45;44c5&#45;82b9&#45;e5468f118ee8 -->
<g id="edge_a2b48aac-5552-4eaa-b348-c620ab3a57b2" class="edge">
<title>[role] instance_creation-&gt;task_f1fed5a6-05f9-44c5-82b9-e5468f118ee8</title>
<path fill="none" stroke="#cf2df1" stroke-width="2" d="M452.1,-729.99C581.14,-729.99 818.52,-729.99 1001.39,-729.99"/>
<polygon fill="#cf2df1" stroke="#cf2df1" stroke-width="2" points="1001.42,-733.49 1011.42,-729.99 1001.42,-726.49 1001.42,-733.49"/>
<text text-anchor="middle" x="686.28" y="-733.79" font-family="Times,serif" font-size="14.00" fill="#cf2df1">13</text>
<links><link target="task_f1fed5a6-05f9-44c5-82b9-e5468f118ee8"/></links></g>
<!-- task_ce8d4cdf&#45;2ac5&#45;4878&#45;a457&#45;a24513c2bd10 -->
<g id="task_ce8d4cdf-2ac5-4878-a457-a24513c2bd10" class="node">
<title>task_ce8d4cdf-2ac5-4878-a457-a24513c2bd10</title>
<polygon fill="none" stroke="black" points="1484.93,-668.53 1484.93,-683.45 1349.38,-693.99 1157.68,-693.99 1022.13,-683.45 1022.13,-668.53 1157.68,-657.99 1349.38,-657.99 1484.93,-668.53"/>
<text text-anchor="middle" x="1253.53" y="-672.29" font-family="Times,serif" font-size="14.00">[task] instance_creation : splunk.service systemd unit file</text>
</g>
<!-- [role] instance_creation&#45;&gt;task_ce8d4cdf&#45;2ac5&#45;4878&#45;a457&#45;a24513c2bd10 -->
<g id="edge_ff1f0e81-0fd1-4146-8531-50b416b5b2fd" class="edge">
<title>[role] instance_creation-&gt;task_ce8d4cdf-2ac5-4878-a457-a24513c2bd10</title>
<path fill="none" stroke="#cf2df1" stroke-width="2" d="M424.52,-717.33C439.36,-714.87 455.07,-712.57 469.78,-710.99 650.93,-691.55 856.78,-682.87 1011.91,-679.01"/>
<polygon fill="#cf2df1" stroke="#cf2df1" stroke-width="2" points="1012.14,-682.51 1022.05,-678.76 1011.97,-675.51 1012.14,-682.51"/>
<text text-anchor="middle" x="686.28" y="-714.79" font-family="Times,serif" font-size="14.00" fill="#cf2df1">14</text>
<links><link target="task_ce8d4cdf-2ac5-4878-a457-a24513c2bd10"/></links></g>
<!-- task_5fefb11c&#45;bdc7&#45;44bf&#45;971c&#45;f7a4e854c70b -->
<g id="task_5fefb11c-bdc7-44bf-971c-f7a4e854c70b" class="node">
<title>task_5fefb11c-bdc7-44bf-971c-f7a4e854c70b</title>
<polygon fill="none" stroke="black" points="1446.04,-614.53 1446.04,-629.45 1333.27,-639.99 1173.79,-639.99 1061.01,-629.45 1061.01,-614.53 1173.79,-603.99 1333.27,-603.99 1446.04,-614.53"/>
<text text-anchor="middle" x="1253.53" y="-618.29" font-family="Times,serif" font-size="14.00">[task] instance_creation : enable splunk.service</text>
</g>
<!-- [role] instance_creation&#45;&gt;task_5fefb11c&#45;bdc7&#45;44bf&#45;971c&#45;f7a4e854c70b -->
<g id="edge_3deafdc2-2405-46f1-8d50-78cf7ff5d352" class="edge">
<title>[role] instance_creation-&gt;task_5fefb11c-bdc7-44bf-971c-f7a4e854c70b</title>
<path fill="none" stroke="#cf2df1" stroke-width="2" d="M380.39,-712.33C401.76,-696.21 435.93,-673.36 469.78,-662.99 683.35,-597.57 944.86,-599.19 1105.02,-608.77"/>
<polygon fill="#cf2df1" stroke="#cf2df1" stroke-width="2" points="1105.22,-612.29 1115.42,-609.41 1105.65,-605.3 1105.22,-612.29"/>
<text text-anchor="middle" x="686.28" y="-666.79" font-family="Times,serif" font-size="14.00" fill="#cf2df1">15</text>
<links><link target="task_5fefb11c-bdc7-44bf-971c-f7a4e854c70b"/></links></g>
<!-- task_ecbaac0f&#45;b595&#45;4c95&#45;9086&#45;a157c77fe80b -->
<g id="task_ecbaac0f-b595-4c95-9086-a157c77fe80b" class="node">
<title>task_ecbaac0f-b595-4c95-9086-a157c77fe80b</title>
<polygon fill="none" stroke="black" points="1586.03,-560.53 1586.03,-575.45 1391.26,-585.99 1115.8,-585.99 921.02,-575.45 921.02,-560.53 1115.8,-549.99 1391.26,-549.99 1586.03,-560.53"/>
<text text-anchor="middle" x="1253.53" y="-564.29" font-family="Times,serif" font-size="14.00">[task] instance_creation : touch ui so it does not ask for the password to be changed</text>
</g>
<!-- [role] instance_creation&#45;&gt;task_ecbaac0f&#45;b595&#45;4c95&#45;9086&#45;a157c77fe80b -->
<g id="edge_da797f07-1d2b-4f83-a60b-4ebead85be2c" class="edge">
<title>[role] instance_creation-&gt;task_ecbaac0f-b595-4c95-9086-a157c77fe80b</title>
<path fill="none" stroke="#cf2df1" stroke-width="2" d="M365.95,-711.99C380.4,-679.62 415.72,-612.38 469.78,-584.99 566.75,-535.84 848.18,-541.48 1045.66,-552.62"/>
<polygon fill="#cf2df1" stroke="#cf2df1" stroke-width="2" points="1045.7,-556.13 1055.89,-553.21 1046.11,-549.14 1045.7,-556.13"/>
<text text-anchor="middle" x="686.28" y="-588.79" font-family="Times,serif" font-size="14.00" fill="#cf2df1">16</text>
<links><link target="task_ecbaac0f-b595-4c95-9086-a157c77fe80b"/></links></g>
<!-- task_017c136d&#45;7628&#45;4c3b&#45;8ac8&#45;45a5b9b925fc -->
<g id="task_017c136d-7628-4c3b-8ac8-45a5b9b925fc" class="node">
<title>task_017c136d-7628-4c3b-8ac8-45a5b9b925fc</title>
<polygon fill="none" stroke="black" points="1431.5,-506.53 1431.5,-521.45 1327.24,-531.99 1179.81,-531.99 1075.56,-521.45 1075.56,-506.53 1179.81,-495.99 1327.24,-495.99 1431.5,-506.53"/>
<text text-anchor="middle" x="1253.53" y="-510.29" font-family="Times,serif" font-size="14.00">[task] instance_creation : configure sudoers</text>
</g>
<!-- [role] instance_creation&#45;&gt;task_017c136d&#45;7628&#45;4c3b&#45;8ac8&#45;45a5b9b925fc -->
<g id="edge_9f6b40f8-c7f4-4bc9-a7a6-c57f16553976" class="edge">
<title>[role] instance_creation-&gt;task_017c136d-7628-4c3b-8ac8-45a5b9b925fc</title>
<path fill="none" stroke="#cf2df1" stroke-width="2" d="M362.05,-711.9C371.23,-670.27 400.2,-568.02 469.78,-525.99 519.34,-496.05 849.8,-500.65 1065.2,-507.08"/>
<polygon fill="#cf2df1" stroke="#cf2df1" stroke-width="2" points="1065.27,-510.58 1075.37,-507.39 1065.48,-503.58 1065.27,-510.58"/>
<text text-anchor="middle" x="686.28" y="-529.79" font-family="Times,serif" font-size="14.00" fill="#cf2df1">17</text>
<links><link target="task_017c136d-7628-4c3b-8ac8-45a5b9b925fc"/></links></g>
<!-- task_cff610a4&#45;9bc1&#45;47f0&#45;b065&#45;edebb1366665 -->
<g id="task_cff610a4-9bc1-47f0-b065-edebb1366665" class="node">
<title>task_cff610a4-9bc1-47f0-b065-edebb1366665</title>
<polygon fill="none" stroke="black" points="1462,-452.53 1462,-467.45 1339.88,-477.99 1167.18,-477.99 1045.06,-467.45 1045.06,-452.53 1167.18,-441.99 1339.88,-441.99 1462,-452.53"/>
<text text-anchor="middle" x="1253.53" y="-456.29" font-family="Times,serif" font-size="14.00">[task] instance_creation : Configure Splunk passwd</text>
</g>
<!-- [role] instance_creation&#45;&gt;task_cff610a4&#45;9bc1&#45;47f0&#45;b065&#45;edebb1366665 -->
<g id="edge_79fd9378-03d0-4fc9-8888-843d54183fb4" class="edge">
<title>[role] instance_creation-&gt;task_cff610a4-9bc1-47f0-b065-edebb1366665</title>
<path fill="none" stroke="#cf2df1" stroke-width="2" d="M360.34,-711.9C366.16,-664.55 389,-536.9 469.78,-482.99 569.46,-416.46 903.11,-430.66 1101.18,-445.95"/>
<polygon fill="#cf2df1" stroke="#cf2df1" stroke-width="2" points="1101.14,-449.46 1111.39,-446.75 1101.69,-442.48 1101.14,-449.46"/>
<text text-anchor="middle" x="686.28" y="-486.79" font-family="Times,serif" font-size="14.00" fill="#cf2df1">18</text>
<links><link target="task_cff610a4-9bc1-47f0-b065-edebb1366665"/></links></g>
<!-- task_c9c99774&#45;55a2&#45;466c&#45;b43a&#45;0c640250a0b3 -->
<g id="task_c9c99774-55a2-466c-b43a-0c640250a0b3" class="node">
<title>task_c9c99774-55a2-466c-b43a-0c640250a0b3</title>
<polygon fill="none" stroke="black" points="1477.86,-398.53 1477.86,-413.45 1346.45,-423.99 1160.61,-423.99 1029.2,-413.45 1029.2,-398.53 1160.61,-387.99 1346.45,-387.99 1477.86,-398.53"/>
<text text-anchor="middle" x="1253.53" y="-402.29" font-family="Times,serif" font-size="14.00">[task] instance_creation : Configure splunk-launch.conf</text>
</g>
<!-- [role] instance_creation&#45;&gt;task_c9c99774&#45;55a2&#45;466c&#45;b43a&#45;0c640250a0b3 -->
<g id="edge_7ad9fc20-1623-421a-ad46-e4ce8b9cd36a" class="edge">
<title>[role] instance_creation-&gt;task_c9c99774-55a2-466c-b43a-0c640250a0b3</title>
<path fill="none" stroke="#cf2df1" stroke-width="2" d="M358.37,-711.95C358.97,-656.17 369.28,-485.93 469.78,-413.99 515.46,-381.29 828.77,-387.5 1044.88,-395.99"/>
<polygon fill="#cf2df1" stroke="#cf2df1" stroke-width="2" points="1044.96,-399.5 1055.09,-396.4 1045.24,-392.5 1044.96,-399.5"/>
<text text-anchor="middle" x="686.28" y="-417.79" font-family="Times,serif" font-size="14.00" fill="#cf2df1">19</text>
<links><link target="task_c9c99774-55a2-466c-b43a-0c640250a0b3"/></links></g>
<!-- task_519c56c9&#45;a9c9&#45;4b3a&#45;9921&#45;789a7b7fb95d -->
<g id="task_519c56c9-a9c9-4b3a-9921-789a7b7fb95d" class="node">
<title>task_519c56c9-a9c9-4b3a-9921-789a7b7fb95d</title>
<polygon fill="none" stroke="black" points="1463.31,-344.53 1463.31,-359.45 1340.42,-369.99 1166.63,-369.99 1043.75,-359.45 1043.75,-344.53 1166.63,-333.99 1340.42,-333.99 1463.31,-344.53"/>
<text text-anchor="middle" x="1253.53" y="-348.29" font-family="Times,serif" font-size="14.00">[task] instance_creation : export Splunk_home path</text>
</g>
<!-- [role] instance_creation&#45;&gt;task_519c56c9&#45;a9c9&#45;4b3a&#45;9921&#45;789a7b7fb95d -->
<g id="edge_9e32cbd5-a24b-45b5-b4af-a9e73e699c10" class="edge">
<title>[role] instance_creation-&gt;task_519c56c9-a9c9-4b3a-9921-789a7b7fb95d</title>
<path fill="none" stroke="#cf2df1" stroke-width="2" d="M361.33,-711.85C372.03,-644.87 412.76,-413.07 469.78,-369.99 513.91,-336.64 818.44,-338.43 1034.34,-344.15"/>
<polygon fill="#cf2df1" stroke="#cf2df1" stroke-width="2" points="1034.47,-347.65 1044.56,-344.42 1034.65,-340.66 1034.47,-347.65"/>
<text text-anchor="middle" x="686.28" y="-373.79" font-family="Times,serif" font-size="14.00" fill="#cf2df1">20</text>
<links><link target="task_519c56c9-a9c9-4b3a-9921-789a7b7fb95d"/></links></g>
<!-- task_23c09844&#45;601c&#45;40be&#45;bfff&#45;a75d96f98743 -->
<g id="task_23c09844-601c-40be-bfff-a75d96f98743" class="node">
<title>task_23c09844-601c-40be-bfff-a75d96f98743</title>
<polygon fill="none" stroke="black" points="1451.39,-290.53 1451.39,-305.45 1335.49,-315.99 1171.57,-315.99 1055.67,-305.45 1055.67,-290.53 1171.57,-279.99 1335.49,-279.99 1451.39,-290.53"/>
<text text-anchor="middle" x="1253.53" y="-294.29" font-family="Times,serif" font-size="14.00">[task] instance_creation : export Splunk in $path</text>
</g>
<!-- [role] instance_creation&#45;&gt;task_23c09844&#45;601c&#45;40be&#45;bfff&#45;a75d96f98743 -->
<g id="edge_78fccd07-e72a-4121-b409-5aab26935681" class="edge">
<title>[role] instance_creation-&gt;task_23c09844-601c-40be-bfff-a75d96f98743</title>
<path fill="none" stroke="#cf2df1" stroke-width="2" d="M360.62,-711.97C369.41,-639.56 405.91,-371.31 469.78,-320.99 513.99,-286.15 828.62,-286.77 1045.26,-291.54"/>
<polygon fill="#cf2df1" stroke="#cf2df1" stroke-width="2" points="1045.43,-295.04 1055.5,-291.77 1045.59,-288.05 1045.43,-295.04"/>
<text text-anchor="middle" x="686.28" y="-324.79" font-family="Times,serif" font-size="14.00" fill="#cf2df1">21</text>
<links><link target="task_23c09844-601c-40be-bfff-a75d96f98743"/></links></g>
<!-- task_33cb057c&#45;325e&#45;4341&#45;8908&#45;a874fc2b2f18 -->
<g id="task_33cb057c-325e-4341-8908-a874fc2b2f18" class="node">
<title>task_33cb057c-325e-4341-8908-a874fc2b2f18</title>
<polygon fill="none" stroke="black" points="1416.04,-236.53 1416.04,-251.45 1320.84,-261.99 1186.21,-261.99 1091.01,-251.45 1091.01,-236.53 1186.21,-225.99 1320.84,-225.99 1416.04,-236.53"/>
<text text-anchor="middle" x="1253.53" y="-240.29" font-family="Times,serif" font-size="14.00">[task] instance_creation : source bashrc</text>
</g>
<!-- [role] instance_creation&#45;&gt;task_33cb057c&#45;325e&#45;4341&#45;8908&#45;a874fc2b2f18 -->
<g id="edge_4f7dde91-8e18-4a69-97c6-43e27972d1da" class="edge">
<title>[role] instance_creation-&gt;task_33cb057c-325e-4341-8908-a874fc2b2f18</title>
<path fill="none" stroke="#cf2df1" stroke-width="2" d="M360.06,-711.91C367.05,-633.95 398.74,-327.83 469.78,-269.99 515.9,-232.44 864.64,-234.07 1080.78,-238.87"/>
<polygon fill="#cf2df1" stroke="#cf2df1" stroke-width="2" points="1080.89,-242.37 1090.97,-239.1 1081.05,-235.37 1080.89,-242.37"/>
<text text-anchor="middle" x="686.28" y="-273.79" font-family="Times,serif" font-size="14.00" fill="#cf2df1">22</text>
<links><link target="task_33cb057c-325e-4341-8908-a874fc2b2f18"/></links></g>
<!-- task_7798798f&#45;fe50&#45;4aed&#45;9c04&#45;96eec5685df7 -->
<g id="task_7798798f-fe50-4aed-9c04-96eec5685df7" class="node">
<title>task_7798798f-fe50-4aed-9c04-96eec5685df7</title>
<polygon fill="none" stroke="black" points="1432.4,-182.53 1432.4,-197.45 1327.62,-207.99 1179.44,-207.99 1074.65,-197.45 1074.65,-182.53 1179.44,-171.99 1327.62,-171.99 1432.4,-182.53"/>
<text text-anchor="middle" x="1253.53" y="-186.29" font-family="Times,serif" font-size="14.00">[task] instance_creation : Copy Licence file</text>
</g>
<!-- [role] instance_creation&#45;&gt;task_7798798f&#45;fe50&#45;4aed&#45;9c04&#45;96eec5685df7 -->
<g id="edge_e84b83f3-7a1d-4fba-b72c-02d7aa6b0729" class="edge">
<title>[role] instance_creation-&gt;task_7798798f-fe50-4aed-9c04-96eec5685df7</title>
<path fill="none" stroke="#cf2df1" stroke-width="2" d="M359.59,-711.86C364.85,-628.42 391.18,-282.64 469.78,-216.99 514.3,-179.8 847.35,-180.2 1064.43,-184.59"/>
<polygon fill="#cf2df1" stroke="#cf2df1" stroke-width="2" points="1064.61,-188.1 1074.68,-184.81 1064.76,-181.1 1064.61,-188.1"/>
<text text-anchor="middle" x="686.28" y="-220.79" font-family="Times,serif" font-size="14.00" fill="#cf2df1">23</text>
<links><link target="task_7798798f-fe50-4aed-9c04-96eec5685df7"/></links></g>
<!-- task_55243684&#45;bf1c&#45;486a&#45;9dfc&#45;0f75039f8c27 -->
<g id="task_55243684-bf1c-486a-9dfc-0f75039f8c27" class="node">
<title>task_55243684-bf1c-486a-9dfc-0f75039f8c27</title>
<polygon fill="none" stroke="black" points="1416.04,-128.53 1416.04,-143.45 1320.84,-153.99 1186.21,-153.99 1091.01,-143.45 1091.01,-128.53 1186.21,-117.99 1320.84,-117.99 1416.04,-128.53"/>
<text text-anchor="middle" x="1253.53" y="-132.29" font-family="Times,serif" font-size="14.00">[task] instance_creation : Apply license</text>
</g>
<!-- [role] instance_creation&#45;&gt;task_55243684&#45;bf1c&#45;486a&#45;9dfc&#45;0f75039f8c27 -->
<g id="edge_7139b9c0-3d61-4e1f-8218-152df17d3fa3" class="edge">
<title>[role] instance_creation-&gt;task_55243684-bf1c-486a-9dfc-0f75039f8c27</title>
<path fill="none" stroke="#cf2df1" stroke-width="2" d="M359.19,-711.78C362.81,-622.97 383.41,-236.6 469.78,-162.99 515.05,-124.41 864.1,-125.95 1080.52,-130.8"/>
<polygon fill="#cf2df1" stroke="#cf2df1" stroke-width="2" points="1080.65,-134.3 1090.73,-131.03 1080.81,-127.3 1080.65,-134.3"/>
<text text-anchor="middle" x="686.28" y="-166.79" font-family="Times,serif" font-size="14.00" fill="#cf2df1">24</text>
<links><link target="task_55243684-bf1c-486a-9dfc-0f75039f8c27"/></links></g>
<!-- task_cafdcaab&#45;e03c&#45;4c70&#45;87b9&#45;2bb673bb7639 -->
<g id="task_cafdcaab-e03c-4c70-87b9-2bb673bb7639" class="node">
<title>task_cafdcaab-e03c-4c70-87b9-2bb673bb7639</title>
<polygon fill="none" stroke="black" points="1396.15,-74.53 1396.15,-89.45 1312.6,-99.99 1194.45,-99.99 1110.91,-89.45 1110.91,-74.53 1194.45,-63.99 1312.6,-63.99 1396.15,-74.53"/>
<text text-anchor="middle" x="1253.53" y="-78.29" font-family="Times,serif" font-size="14.00">[task] instance_creation : Finished</text>
</g>
<!-- [role] instance_creation&#45;&gt;task_cafdcaab&#45;e03c&#45;4c70&#45;87b9&#45;2bb673bb7639 -->
<g id="edge_db4e24cf-dee0-465e-bb5b-9fbb577c618c" class="edge">
<title>[role] instance_creation-&gt;task_cafdcaab-e03c-4c70-87b9-2bb673bb7639</title>
<path fill="none" stroke="#cf2df1" stroke-width="2" d="M358.86,-711.96C360.93,-618.52 375.52,-190.67 469.78,-108.99 677.09,70.65 1043.76,-16.07 1189.88,-60.9"/>
<polygon fill="#cf2df1" stroke="#cf2df1" stroke-width="2" points="1189.01,-64.3 1199.6,-63.92 1191.09,-57.61 1189.01,-64.3"/>
<text text-anchor="middle" x="686.28" y="-112.79" font-family="Times,serif" font-size="14.00" fill="#cf2df1">25</text>
<links><link target="task_cafdcaab-e03c-4c70-87b9-2bb673bb7639"/></links></g>
<!-- Play #1: all (1)&#45;&gt;[role] instance_creation -->
<g id="edge_96b7cf19-8b68-40db-868b-824219ceb227" class="edge">
<title>Play #1: all (1)-&gt;[role] instance_creation</title>
<path fill="none" stroke="#cf2df1" d="M220.7,-729.99C230.74,-729.99 241.68,-729.99 252.86,-729.99"/>
<polygon fill="#cf2df1" stroke="#cf2df1" points="253.16,-733.49 263.16,-729.99 253.16,-726.49 253.16,-733.49"/>
<text text-anchor="middle" x="241.79" y="-733.79" font-family="Times,serif" font-size="14.00" fill="#cf2df1">1</text>
<links><link target="role_55181d02-d8b1-4ffb-aa81-e2c35478057b"/></links></g>
</g>
</svg>